# xmcd
#
# Track frame offsets: 
#        150
#        33012
#        52026
#        69746
#        90276
#        106025
#        134574
#        154689
#        173349
#        194333
#        211863
#        232165
#        251884
#        274728
#        294030
#        317064
#        340209
#
# Disc length: 4780 seconds
#
# Revision: 2
# Processed by: cddbd v1.5.2PL0 Copyright (c) Steve Scherf et al.
# Submitted via: ExactAudioCopy v0.95a5
#
DISCID=eb12aa11
DTITLE=CHRIS REA - The Best of ...  part 1    79'38''
DYEAR=2004
DGENRE=Ballad
TTITLE0=Auberge
TTITLE1=Little Blonde Plaits
TTITLE2=Shine, Shine, Shine
TTITLE3=Fool (If You Think It's Over)
TTITLE4=I Just Wanna Be with You
TTITLE5=Curse Of the Traveler
TTITLE6=There She Goes
TTITLE7=Love Turns to Lies
TTITLE8=Sweet Summer Day
TTITLE9=Diamond
TTITLE10=Stone
TTITLE11=Soft Top Hard Shoulder
TTITLE12=Speed
TTITLE13=Nothing's Happening By the Sea
TTITLE14=Daytona
TTITLE15=All Summer Long
TTITLE16=Auf Immer Und Ewig
EXTD=
EXTT0=
EXTT1=
EXTT2=
EXTT3=
EXTT4=
EXTT5=
EXTT6=
EXTT7=
EXTT8=
EXTT9=
EXTT10=
EXTT11=
EXTT12=
EXTT13=
EXTT14=
EXTT15=
EXTT16=
PLAYORDER=
